<mxfile host="app.diagrams.net" modified="2024-05-19T16:00:27.578Z" agent="Mozilla/5.0 (Windows NT 10.0; Win64; x64) AppleWebKit/537.36 (KHTML, like Gecko) Chrome/124.0.0.0 Safari/537.36" etag="Sp6lUZTYDO3kefVvvQDw" version="24.4.4" type="github">
  <diagram name="第 1 页" id="x_fu7FgInf9ywydpPFhU">
    <mxGraphModel dx="769" dy="584" grid="1" gridSize="10" guides="1" tooltips="1" connect="1" arrows="1" fold="1" page="1" pageScale="1" pageWidth="827" pageHeight="1169" math="1" shadow="0">
      <root>
        <mxCell id="0" />
        <mxCell id="1" parent="0" />
        <mxCell id="GDzIt_1PXqLzb1hn-czc-49" style="edgeStyle=orthogonalEdgeStyle;rounded=0;orthogonalLoop=1;jettySize=auto;html=1;entryX=0.5;entryY=0;entryDx=0;entryDy=0;endArrow=openThin;endFill=0;" parent="1" source="GDzIt_1PXqLzb1hn-czc-30" target="GDzIt_1PXqLzb1hn-czc-32" edge="1">
          <mxGeometry relative="1" as="geometry" />
        </mxCell>
        <mxCell id="GDzIt_1PXqLzb1hn-czc-30" value="&lt;font style=&quot;font-size: 10px;&quot;&gt;输入查询&lt;/font&gt;&lt;div&gt;&lt;font style=&quot;font-size: 10px;&quot;&gt;&lt;span style=&quot;font-family: &amp;quot;Cambria Math&amp;quot;;&quot;&gt;(&lt;/span&gt;&lt;span style=&quot;font-family: &amp;quot;Cambria Math&amp;quot;;&quot;&gt;e&lt;sub&gt;s&lt;/sub&gt;,&amp;nbsp; r&lt;sub&gt;q&lt;/sub&gt;,&amp;nbsp;?)&lt;/span&gt;&lt;/font&gt;&lt;/div&gt;" style="rounded=0;whiteSpace=wrap;html=1;" parent="1" vertex="1">
          <mxGeometry x="600" width="120" height="60" as="geometry" />
        </mxCell>
        <mxCell id="GDzIt_1PXqLzb1hn-czc-46" style="edgeStyle=orthogonalEdgeStyle;rounded=0;orthogonalLoop=1;jettySize=auto;html=1;entryX=0.5;entryY=0;entryDx=0;entryDy=0;endArrow=openThin;endFill=0;" parent="1" source="GDzIt_1PXqLzb1hn-czc-32" target="GDzIt_1PXqLzb1hn-czc-33" edge="1">
          <mxGeometry relative="1" as="geometry" />
        </mxCell>
        <mxCell id="GDzIt_1PXqLzb1hn-czc-47" style="edgeStyle=orthogonalEdgeStyle;rounded=0;orthogonalLoop=1;jettySize=auto;html=1;entryX=0;entryY=0.5;entryDx=0;entryDy=0;exitX=0;exitY=0.5;exitDx=0;exitDy=0;fillColor=#ffe6cc;strokeColor=#000000;endArrow=openThin;endFill=0;" parent="1" source="GDzIt_1PXqLzb1hn-czc-32" target="GDzIt_1PXqLzb1hn-czc-48" edge="1">
          <mxGeometry relative="1" as="geometry">
            <mxPoint x="470" y="910" as="targetPoint" />
            <mxPoint x="520" y="174.9999999999999" as="sourcePoint" />
            <Array as="points">
              <mxPoint x="520" y="120" />
              <mxPoint x="520" y="700" />
            </Array>
          </mxGeometry>
        </mxCell>
        <mxCell id="GDzIt_1PXqLzb1hn-czc-32" value="L次迭代" style="rhombus;whiteSpace=wrap;html=1;" parent="1" vertex="1">
          <mxGeometry x="620" y="80" width="80" height="80" as="geometry" />
        </mxCell>
        <mxCell id="GDzIt_1PXqLzb1hn-czc-44" style="edgeStyle=orthogonalEdgeStyle;rounded=0;orthogonalLoop=1;jettySize=auto;html=1;endArrow=openThin;endFill=0;" parent="1" source="GDzIt_1PXqLzb1hn-czc-33" target="GDzIt_1PXqLzb1hn-czc-34" edge="1">
          <mxGeometry relative="1" as="geometry" />
        </mxCell>
        <mxCell id="GDzIt_1PXqLzb1hn-czc-33" value="采样TopK个节点 TopL条边（基于优先级函数）" style="rounded=0;whiteSpace=wrap;html=1;" parent="1" vertex="1">
          <mxGeometry x="600" y="180" width="120" height="60" as="geometry" />
        </mxCell>
        <mxCell id="GDzIt_1PXqLzb1hn-czc-45" style="edgeStyle=orthogonalEdgeStyle;rounded=0;orthogonalLoop=1;jettySize=auto;html=1;entryX=0.5;entryY=0;entryDx=0;entryDy=0;endArrow=openThin;endFill=0;" parent="1" source="GDzIt_1PXqLzb1hn-czc-34" target="GDzIt_1PXqLzb1hn-czc-35" edge="1">
          <mxGeometry relative="1" as="geometry" />
        </mxCell>
        <mxCell id="GDzIt_1PXqLzb1hn-czc-34" value="第l次采样的每个实体" style="rhombus;whiteSpace=wrap;html=1;" parent="1" vertex="1">
          <mxGeometry x="620" y="260" width="80" height="80" as="geometry" />
        </mxCell>
        <mxCell id="GDzIt_1PXqLzb1hn-czc-40" style="edgeStyle=orthogonalEdgeStyle;rounded=0;orthogonalLoop=1;jettySize=auto;html=1;entryX=0;entryY=0.5;entryDx=0;entryDy=0;exitX=0;exitY=0.5;exitDx=0;exitDy=0;endArrow=openThin;endFill=0;" parent="1" source="GDzIt_1PXqLzb1hn-czc-34" target="GDzIt_1PXqLzb1hn-czc-39" edge="1">
          <mxGeometry relative="1" as="geometry">
            <mxPoint x="600" y="650" as="targetPoint" />
            <mxPoint x="610" y="250" as="sourcePoint" />
            <Array as="points">
              <mxPoint x="560" y="300" />
              <mxPoint x="560" y="590" />
            </Array>
          </mxGeometry>
        </mxCell>
        <mxCell id="GDzIt_1PXqLzb1hn-czc-41" style="edgeStyle=orthogonalEdgeStyle;rounded=0;orthogonalLoop=1;jettySize=auto;html=1;entryX=0.5;entryY=0;entryDx=0;entryDy=0;endArrow=openThin;endFill=0;" parent="1" source="GDzIt_1PXqLzb1hn-czc-35" edge="1">
          <mxGeometry relative="1" as="geometry">
            <mxPoint x="660" y="460" as="targetPoint" />
          </mxGeometry>
        </mxCell>
        <mxCell id="GDzIt_1PXqLzb1hn-czc-35" value="计算消息MESS(▪)&lt;div&gt;更新实体表示Φ(AGG(▪))&lt;br&gt;&lt;/div&gt;" style="rounded=0;whiteSpace=wrap;html=1;" parent="1" vertex="1">
          <mxGeometry x="600" y="370" width="120" height="60" as="geometry" />
        </mxCell>
        <mxCell id="GDzIt_1PXqLzb1hn-czc-38" style="edgeStyle=orthogonalEdgeStyle;rounded=0;orthogonalLoop=1;jettySize=auto;html=1;entryX=1;entryY=0.5;entryDx=0;entryDy=0;endArrow=openThin;endFill=0;" parent="1" source="GDzIt_1PXqLzb1hn-czc-37" target="GDzIt_1PXqLzb1hn-czc-34" edge="1">
          <mxGeometry relative="1" as="geometry">
            <Array as="points">
              <mxPoint x="660" y="540" />
              <mxPoint x="770" y="540" />
              <mxPoint x="770" y="300" />
            </Array>
          </mxGeometry>
        </mxCell>
        <mxCell id="GDzIt_1PXqLzb1hn-czc-37" value="计算优先级" style="rounded=0;whiteSpace=wrap;html=1;" parent="1" vertex="1">
          <mxGeometry x="600" y="460" width="120" height="60" as="geometry" />
        </mxCell>
        <mxCell id="GDzIt_1PXqLzb1hn-czc-50" style="edgeStyle=orthogonalEdgeStyle;rounded=0;orthogonalLoop=1;jettySize=auto;html=1;entryX=1;entryY=0.5;entryDx=0;entryDy=0;exitX=0.5;exitY=1;exitDx=0;exitDy=0;endArrow=openThin;endFill=0;" parent="1" source="GDzIt_1PXqLzb1hn-czc-39" target="GDzIt_1PXqLzb1hn-czc-32" edge="1">
          <mxGeometry relative="1" as="geometry">
            <mxPoint x="650" y="880" as="sourcePoint" />
            <mxPoint x="690" y="179.9999999999999" as="targetPoint" />
            <Array as="points">
              <mxPoint x="660" y="640" />
              <mxPoint x="810" y="640" />
              <mxPoint x="810" y="120" />
            </Array>
          </mxGeometry>
        </mxCell>
        <mxCell id="GDzIt_1PXqLzb1hn-czc-39" value="更新传播路径" style="rounded=0;whiteSpace=wrap;html=1;" parent="1" vertex="1">
          <mxGeometry x="600" y="560" width="120" height="60" as="geometry" />
        </mxCell>
        <mxCell id="GDzIt_1PXqLzb1hn-czc-48" value="输出每个候选实体的表示" style="rounded=0;whiteSpace=wrap;html=1;" parent="1" vertex="1">
          <mxGeometry x="610" y="670" width="120" height="60" as="geometry" />
        </mxCell>
      </root>
    </mxGraphModel>
  </diagram>
</mxfile>
